<svg width="48" height="48" viewBox="0 0 48 48" fill="none" xmlns="http://www.w3.org/2000/svg">
<g clip-path="url(#clip0_13_13)">
<path d="M24 9C24.3978 9 24.7794 9.15804 25.0607 9.43934C25.342 9.72064 25.5 10.1022 25.5 10.5V16.5C25.5 16.8978 25.342 17.2794 25.0607 17.5607C24.7794 17.842 24.3978 18 24 18C23.6022 18 23.2206 17.842 22.9393 17.5607C22.658 17.2794 22.5 16.8978 22.5 16.5V10.5C22.5 10.1022 22.658 9.72064 22.9393 9.43934C23.2206 9.15804 23.6022 9 24 9ZM36 33C36 36.1826 34.7357 39.2348 32.4853 41.4853C30.2348 43.7357 27.1826 45 24 45C20.8174 45 17.7652 43.7357 15.5147 41.4853C13.2643 39.2348 12 36.1826 12 33V15C12 11.8174 13.2643 8.76516 15.5147 6.51472C17.7652 4.26428 20.8174 3 24 3C27.1826 3 30.2348 4.26428 32.4853 6.51472C34.7357 8.76516 36 11.8174 36 15V33ZM24 0C20.0218 0 16.2064 1.58035 13.3934 4.3934C10.5804 7.20644 9 11.0218 9 15V33C9 36.9782 10.5804 40.7936 13.3934 43.6066C16.2064 46.4196 20.0218 48 24 48C27.9782 48 31.7936 46.4196 34.6066 43.6066C37.4196 40.7936 39 36.9782 39 33V15C39 11.0218 37.4196 7.20644 34.6066 4.3934C31.7936 1.58035 27.9782 0 24 0Z" fill="#656469"/>
</g>
<defs>
<clipPath id="clip0_13_13">
<rect width="48" height="48" fill="white"/>
</clipPath>
</defs>
</svg>
