<svg width="24" height="24" viewBox="0 0 24 24" fill="none" xmlns="http://www.w3.org/2000/svg">
<g clip-path="url(#clip0_19_3)">
<path d="M5.274 10.4673C6.31235 10.4673 7.32739 10.7284 8.19074 11.2175C9.0541 11.7066 9.72701 12.4017 10.1244 13.2151C10.5217 14.0284 10.6257 14.9234 10.4231 15.7868C10.2205 16.6502 9.72054 17.4433 8.98631 18.0658C8.25208 18.6883 7.31662 19.1122 6.29822 19.284C5.27982 19.4557 4.22422 19.3676 3.26491 19.0307C2.3056 18.6938 1.48566 18.1233 0.908784 17.3913C0.331907 16.6593 0.024 15.7988 0.024 14.9184L0 14.2825C0 11.9215 1.10625 9.65724 3.07538 7.98776C5.04451 6.31828 7.71523 5.38037 10.5 5.38037V7.40211C9.51465 7.39986 7.62815 8.40456 7.62815 8.40456C7.62815 8.40456 5.89109 9.19356 5.196 9.78568C4.92584 10.0143 4.67662 10.26 4.4505 10.5207C4.719 10.4851 4.9935 10.4661 5.2725 10.4661L5.274 10.4673ZM18.774 10.4673C19.8123 10.4673 20.8274 10.7284 21.6907 11.2175C22.5541 11.7066 23.227 12.4017 23.6244 13.2151C24.0217 14.0284 24.1257 14.9234 23.9231 15.7868C23.7205 16.6502 23.2205 17.4433 22.4863 18.0658C21.7521 18.6883 20.8166 19.1122 19.7982 19.284C18.7798 19.4557 17.7242 19.3676 16.7649 19.0307C15.8056 18.6938 14.9857 18.1233 14.4088 17.3913C13.8319 16.6593 13.524 15.7988 13.524 14.9184L13.5 14.2825C13.5 11.9215 14.6062 9.65724 16.5754 7.98776C18.5445 6.31828 21.2152 5.38037 24 5.38037V7.40211C23.0147 7.39986 21.1281 8.40456 21.1281 8.40456C21.1281 8.40456 19.3911 9.19356 18.696 9.78568C18.4258 10.0143 18.1766 10.26 17.9505 10.5207C18.219 10.4851 18.4935 10.4673 18.774 10.4673Z" fill="#881C1D"/>
</g>
<defs>
<clipPath id="clip0_19_3">
<rect width="24" height="24" fill="white"/>
</clipPath>
</defs>
</svg>
